<?xml version="1.0" encoding="UTF-8"?>
<!DOCTYPE svg PUBLIC "-//W3C//DTD SVG 1.1//EN" "http://www.w3.org/Graphics/SVG/1.1/DTD/svg11.dtd">
<svg xmlns="http://www.w3.org/2000/svg" version="1.1" width="1200px" height="1200px" style="shape-rendering:geometricPrecision; text-rendering:geometricPrecision; image-rendering:optimizeQuality; fill-rule:evenodd; clip-rule:evenodd" xmlns:xlink="http://www.w3.org/1999/xlink">
<g><path style="opacity:1" fill="#053242" d="M -0.5,-0.5 C 399.5,-0.5 799.5,-0.5 1199.5,-0.5C 1199.5,399.5 1199.5,799.5 1199.5,1199.5C 799.5,1199.5 399.5,1199.5 -0.5,1199.5C -0.5,799.5 -0.5,399.5 -0.5,-0.5 Z"/></g>
<g><path style="opacity:1" fill="#fc6c46" d="M 942.5,386.5 C 942.5,507.167 942.5,627.833 942.5,748.5C 937.5,748.5 932.5,748.5 927.5,748.5C 927.5,632.833 927.5,517.167 927.5,401.5C 688.666,401.167 449.999,401.5 211.5,402.5C 211.5,544.833 211.5,687.167 211.5,829.5C 455.166,830.017 698.833,830.351 942.5,830.5C 942.5,835.5 942.5,840.5 942.5,845.5C 693.5,845.5 444.5,845.5 195.5,845.5C 195.5,692.5 195.5,539.5 195.5,386.5C 444.5,386.5 693.5,386.5 942.5,386.5 Z"/></g>
<g><path style="opacity:1" fill="#ba5c45" d="M 942.5,386.5 C 942.833,386.5 943.167,386.5 943.5,386.5C 943.5,507.5 943.5,628.5 943.5,749.5C 938.167,749.5 932.833,749.5 927.5,749.5C 927.5,749.167 927.5,748.833 927.5,748.5C 932.5,748.5 937.5,748.5 942.5,748.5C 942.5,627.833 942.5,507.167 942.5,386.5 Z"/></g>
<g><path style="opacity:1" fill="#a45845" d="M 211.5,402.5 C 449.999,401.5 688.666,401.167 927.5,401.5C 927.5,517.167 927.5,632.833 927.5,748.5C 927.5,748.833 927.5,749.167 927.5,749.5C 926.5,634.001 926.167,518.335 926.5,402.5C 688.167,402.5 449.833,402.5 211.5,402.5 Z"/></g>
<g><path style="opacity:1" fill="#f66b46" d="M 682.5,434.5 C 714.168,434.333 745.835,434.5 777.5,435C 778.833,439.667 778.833,444.333 777.5,449C 765.505,449.5 753.505,449.667 741.5,449.5C 741.667,485.502 741.5,521.502 741,557.5C 740.5,558 740,558.5 739.5,559C 733.833,559.667 728.167,559.667 722.5,559C 722,558.5 721.5,558 721,557.5C 720.5,521.502 720.333,485.502 720.5,449.5C 707.5,449.5 694.5,449.5 681.5,449.5C 681.221,444.405 681.555,439.405 682.5,434.5 Z"/></g>
<g><path style="opacity:1" fill="#f86b46" d="M 876.5,434.5 C 882.093,434.193 887.593,434.527 893,435.5C 893.667,476.167 893.667,516.833 893,557.5C 892.5,558 892,558.5 891.5,559C 886.249,559.804 881.082,559.637 876,558.5C 875.173,517.096 875.34,475.762 876.5,434.5 Z"/></g>
<g><path style="opacity:1" fill="#f86b46" d="M 806.5,468.5 C 818.711,467.189 830.378,469.022 841.5,474C 845.422,477.251 848.588,481.084 851,485.5C 852.627,509.784 852.961,534.117 852,558.5C 847.252,559.635 842.419,559.802 837.5,559C 836.544,555.606 836.211,552.106 836.5,548.5C 835.127,548.343 833.793,548.51 832.5,549C 819.21,561.094 804.21,563.76 787.5,557C 778.16,550.189 774.66,541.022 777,529.5C 780.872,519.963 787.706,513.463 797.5,510C 809.21,506.375 821.21,504.708 833.5,505C 836.994,497.189 835.66,490.189 829.5,484C 815.186,476.936 803.519,479.936 794.5,493C 776.883,493.571 774.883,488.237 788.5,477C 794.16,473.288 800.16,470.455 806.5,468.5 Z"/></g>
<g><path style="opacity:1" fill="#0c3242" d="M 825.5,514.5 C 828.777,514.216 831.943,514.549 835,515.5C 838.158,538.012 828.325,548.845 805.5,548C 794.905,544.299 791.738,537.132 796,526.5C 798.592,523.238 801.759,520.738 805.5,519C 812.145,516.774 818.811,515.274 825.5,514.5 Z"/></g>
<g><path style="opacity:1" fill="#f96c46" d="M 285.5,594.5 C 292.508,594.334 299.508,594.5 306.5,595C 307.308,595.308 307.975,595.808 308.5,596.5C 322.765,635.462 336.932,674.462 351,713.5C 351.667,715.167 351.667,716.833 351,718.5C 344.667,719.833 338.333,719.833 332,718.5C 328.025,707.572 323.858,696.738 319.5,686C 303.167,685.333 286.833,685.333 270.5,686C 266.204,696.763 262.037,707.596 258,718.5C 252.593,719.473 247.093,719.807 241.5,719.5C 241.338,717.473 241.505,715.473 242,713.5C 256.516,673.808 271.016,634.141 285.5,594.5 Z"/></g>
<g><path style="opacity:1" fill="#f86b46" d="M 572.5,594.5 C 578.093,594.193 583.593,594.527 589,595.5C 589.667,636.167 589.667,676.833 589,717.5C 588.5,718 588,718.5 587.5,719C 582.249,719.804 577.082,719.637 572,718.5C 571.173,677.096 571.34,635.762 572.5,594.5 Z"/></g>
<g><path style="opacity:1" fill="#f86c46" d="M 638.5,594.5 C 646.507,594.334 654.507,594.5 662.5,595C 663.833,599 663.833,603 662.5,607C 657.167,607.333 651.833,607.667 646.5,608C 645.069,608.465 643.903,609.299 643,610.5C 641.58,617.05 641.08,623.716 641.5,630.5C 648.5,630.5 655.5,630.5 662.5,630.5C 662.5,634.5 662.5,638.5 662.5,642.5C 655.578,642.188 648.744,642.521 642,643.5C 641.667,668.5 641.333,693.5 641,718.5C 635.333,719.833 629.667,719.833 624,718.5C 623.5,693.169 623.333,667.836 623.5,642.5C 617.5,642.5 611.5,642.5 605.5,642.5C 605.5,638.5 605.5,634.5 605.5,630.5C 611.5,630.5 617.5,630.5 623.5,630.5C 623.104,622.747 623.604,615.08 625,607.5C 627.442,600.888 631.942,596.555 638.5,594.5 Z"/></g>
<g><path style="opacity:1" fill="#f86b46" d="M 774.5,594.5 C 780.093,594.193 785.593,594.527 791,595.5C 791.83,636.738 791.663,677.904 790.5,719C 784.916,719.806 779.416,719.639 774,718.5C 773.173,677.096 773.34,635.762 774.5,594.5 Z"/></g>
<g><path style="opacity:1" fill="#f76b46" d="M 838.5,630.5 C 844.13,629.708 849.797,629.375 855.5,629.5C 862.644,630.489 868.811,633.489 874,638.5C 875.317,624.32 875.983,609.987 876,595.5C 881.667,594.167 887.333,594.167 893,595.5C 893.667,636.167 893.667,676.833 893,717.5C 892.5,718 892,718.5 891.5,719C 886.833,719.667 882.167,719.667 877.5,719C 877,718.5 876.5,718 876,717.5C 875.667,714.5 875.333,711.5 875,708.5C 861.294,721.541 845.794,724.041 828.5,716C 819.577,709.004 814.077,699.838 812,688.5C 807.963,668.126 813.129,650.626 827.5,636C 830.91,633.628 834.577,631.795 838.5,630.5 Z"/></g>
<g><path style="opacity:1" fill="#153442" d="M 294.5,616.5 C 295.75,616.577 296.583,617.244 297,618.5C 302.667,634.167 308.333,649.833 314,665.5C 314.667,666.833 314.667,668.167 314,669.5C 301.246,670.489 288.413,670.822 275.5,670.5C 281.031,652.242 287.364,634.242 294.5,616.5 Z"/></g>
<g><path style="opacity:1" fill="#af5a45" d="M 855.5,629.5 C 849.797,629.375 844.13,629.708 838.5,630.5C 841.526,628.981 844.859,628.315 848.5,628.5C 851.025,628.503 853.359,628.837 855.5,629.5 Z"/></g>
<g><path style="opacity:1" fill="#f86b46" d="M 408.5,628.5 C 432.539,626.389 447.039,637.056 452,660.5C 452.804,670.873 452.471,681.207 451,691.5C 444.371,714.44 429.204,723.94 405.5,720C 399.882,718.193 394.882,715.36 390.5,711.5C 389.668,722.819 389.168,734.152 389,745.5C 388.5,746 388,746.5 387.5,747C 382.5,747.667 377.5,747.667 372.5,747C 371.337,708.571 371.17,670.071 372,631.5C 377.416,630.361 382.916,630.194 388.5,631C 389.13,634.129 389.796,637.296 390.5,640.5C 395.746,635.233 401.746,631.233 408.5,628.5 Z"/></g>
<g><path style="opacity:1" fill="#f76b46" d="M 504.5,628.5 C 537.748,628.417 553.748,645.084 552.5,678.5C 530.5,678.5 508.5,678.5 486.5,678.5C 488.126,700.291 499.793,709.791 521.5,707C 524.618,705.941 527.618,704.608 530.5,703C 533.38,699.783 536.547,696.95 540,694.5C 543.752,695.958 547.252,697.792 550.5,700C 541.862,714.571 529.029,721.404 512,720.5C 488.31,719.818 473.976,707.818 469,684.5C 465.018,655.406 476.852,636.739 504.5,628.5 Z"/></g>
<g><path style="opacity:1" fill="#f76b46" d="M 704.5,628.5 C 739.405,626.949 756.072,643.616 754.5,678.5C 732.831,678.333 711.164,678.5 689.5,679C 688.636,692.579 694.636,701.912 707.5,707C 721.647,709.732 733.147,705.565 742,694.5C 746.033,695.432 749.533,697.266 752.5,700C 746.357,711.077 737.024,717.743 724.5,720C 695.529,724.015 677.696,711.848 671,683.5C 667.953,656.225 679.12,637.891 704.5,628.5 Z"/></g>
<g><path style="opacity:1" fill="#093242" d="M 405.5,640.5 C 420.472,639.401 429.972,646.067 434,660.5C 435.353,672.406 434.353,684.073 431,695.5C 424.607,706.419 415.107,710.586 402.5,708C 397.786,705.949 393.619,703.115 390,699.5C 389.333,684.167 389.333,668.833 390,653.5C 393.258,646.73 398.425,642.397 405.5,640.5 Z"/></g>
<g><path style="opacity:1" fill="#0c3242" d="M 505.5,640.5 C 524.575,638.924 534.408,647.591 535,666.5C 519.244,667.491 503.411,667.825 487.5,667.5C 487.252,654.327 493.252,645.327 505.5,640.5 Z"/></g>
<g><path style="opacity:1" fill="#0b3242" d="M 707.5,640.5 C 727.013,639.016 737.013,648.016 737.5,667.5C 721.5,667.5 705.5,667.5 689.5,667.5C 689.271,654.277 695.271,645.277 707.5,640.5 Z"/></g>
<g><path style="opacity:1" fill="#0a3242" d="M 849.5,640.5 C 859.609,639.807 868.109,643.14 875,650.5C 875.667,664.833 875.667,679.167 875,693.5C 869.472,705.848 859.972,710.682 846.5,708C 837.324,704.154 831.824,697.321 830,687.5C 828.904,677.025 829.571,666.692 832,656.5C 835.503,648.492 841.336,643.159 849.5,640.5 Z"/></g>
<g><path style="opacity:1" fill="#f16a46" d="M 547.5,778.5 C 549.144,778.286 550.644,778.62 552,779.5C 553.489,784.457 554.822,789.457 556,794.5C 557.815,789.237 559.315,783.903 560.5,778.5C 562.144,778.286 563.644,778.62 565,779.5C 566.35,783.91 567.85,788.243 569.5,792.5C 571.454,788.02 572.787,783.354 573.5,778.5C 574.833,778.5 576.167,778.5 577.5,778.5C 575.344,786.124 573.344,793.79 571.5,801.5C 569.833,801.5 568.167,801.5 566.5,801.5C 565.949,796.297 564.616,791.297 562.5,786.5C 560.701,791.063 559.201,795.73 558,800.5C 556.644,801.38 555.144,801.714 553.5,801.5C 551.5,793.833 549.5,786.167 547.5,778.5 Z"/></g>
<g><path style="opacity:1" fill="#fb6c46" d="M 585.5,778.5 C 590.833,778.5 596.167,778.5 601.5,778.5C 601.5,779.5 601.5,780.5 601.5,781.5C 597.5,781.5 593.5,781.5 589.5,781.5C 589.5,783.833 589.5,786.167 589.5,788.5C 592.167,788.5 594.833,788.5 597.5,788.5C 597.5,789.5 597.5,790.5 597.5,791.5C 594.833,791.5 592.167,791.5 589.5,791.5C 589.5,793.833 589.5,796.167 589.5,798.5C 593.5,798.5 597.5,798.5 601.5,798.5C 601.5,799.5 601.5,800.5 601.5,801.5C 596.167,801.5 590.833,801.5 585.5,801.5C 585.5,793.833 585.5,786.167 585.5,778.5 Z"/></g>
<g><path style="opacity:1" fill="#f16a46" d="M 609.5,778.5 C 614.628,778.112 619.628,778.612 624.5,780C 627.439,783.973 626.772,787.307 622.5,790C 629.148,793.613 629.148,797.279 622.5,801C 618.179,801.499 613.846,801.666 609.5,801.5C 609.5,793.833 609.5,786.167 609.5,778.5 Z"/></g>
<g><path style="opacity:1" fill="#ea6846" d="M 644.5,778.5 C 650.072,777.99 655.405,778.823 660.5,781C 664.888,787.84 664.222,794.173 658.5,800C 653.934,801.309 649.267,801.809 644.5,801.5C 644.5,793.833 644.5,786.167 644.5,778.5 Z"/></g>
<g><path style="opacity:1" fill="#f16a46" d="M 671.5,778.5 C 676.833,778.5 682.167,778.5 687.5,778.5C 687.5,779.5 687.5,780.5 687.5,781.5C 683.833,781.5 680.167,781.5 676.5,781.5C 676.5,783.833 676.5,786.167 676.5,788.5C 679.167,788.5 681.833,788.5 684.5,788.5C 684.5,789.5 684.5,790.5 684.5,791.5C 681.833,791.5 679.167,791.5 676.5,791.5C 676.5,793.833 676.5,796.167 676.5,798.5C 680.167,798.5 683.833,798.5 687.5,798.5C 687.5,799.5 687.5,800.5 687.5,801.5C 682.167,801.5 676.833,801.5 671.5,801.5C 671.5,793.833 671.5,786.167 671.5,778.5 Z"/></g>
<g><path style="opacity:1" fill="#f36a46" d="M 694.5,778.5 C 696.144,778.286 697.644,778.62 699,779.5C 700.465,784.894 702.131,790.228 704,795.5C 706.34,789.981 708.173,784.314 709.5,778.5C 710.833,778.5 712.167,778.5 713.5,778.5C 710.968,786.096 708.635,793.762 706.5,801.5C 704.712,801.785 703.045,801.452 701.5,800.5C 698.759,793.277 696.425,785.943 694.5,778.5 Z"/></g>
<g><path style="opacity:1" fill="#fb6c46" d="M 721.5,778.5 C 726.833,778.5 732.167,778.5 737.5,778.5C 737.5,779.5 737.5,780.5 737.5,781.5C 733.5,781.5 729.5,781.5 725.5,781.5C 725.5,783.833 725.5,786.167 725.5,788.5C 728.167,788.5 730.833,788.5 733.5,788.5C 733.5,789.5 733.5,790.5 733.5,791.5C 730.833,791.5 728.167,791.5 725.5,791.5C 725.5,793.833 725.5,796.167 725.5,798.5C 729.5,798.5 733.5,798.5 737.5,798.5C 737.5,799.5 737.5,800.5 737.5,801.5C 732.167,801.5 726.833,801.5 721.5,801.5C 721.5,793.833 721.5,786.167 721.5,778.5 Z"/></g>
<g><path style="opacity:1" fill="#fc6c47" d="M 745.5,778.5 C 746.833,778.5 748.167,778.5 749.5,778.5C 749.5,785.167 749.5,791.833 749.5,798.5C 753.167,798.5 756.833,798.5 760.5,798.5C 760.5,799.5 760.5,800.5 760.5,801.5C 755.5,801.5 750.5,801.5 745.5,801.5C 745.5,793.833 745.5,786.167 745.5,778.5 Z"/></g>
<g><path style="opacity:1" fill="#f66b46" d="M 793.5,778.5 C 797.846,778.334 802.179,778.501 806.5,779C 812.319,782.098 812.986,786.098 808.5,791C 804.94,792.237 801.273,792.737 797.5,792.5C 797.5,795.5 797.5,798.5 797.5,801.5C 796.167,801.5 794.833,801.5 793.5,801.5C 793.5,793.833 793.5,786.167 793.5,778.5 Z"/></g>
<g><path style="opacity:1" fill="#f06a46" d="M 838.5,801.5 C 838.666,796.156 838.499,790.823 838,785.5C 836.961,786.244 836.461,787.244 836.5,788.5C 834.768,792.697 833.435,797.031 832.5,801.5C 831.167,801.5 829.833,801.5 828.5,801.5C 826.974,796.09 825.141,790.756 823,785.5C 822.501,790.823 822.334,796.156 822.5,801.5C 821.167,801.5 819.833,801.5 818.5,801.5C 818.5,793.833 818.5,786.167 818.5,778.5C 820.924,778.192 823.257,778.526 825.5,779.5C 827.056,784.278 828.89,788.945 831,793.5C 832.667,788.833 834.333,784.167 836,779.5C 838.041,778.577 840.208,778.244 842.5,778.5C 842.5,786.167 842.5,793.833 842.5,801.5C 841.167,801.5 839.833,801.5 838.5,801.5 Z"/></g>
<g><path style="opacity:1" fill="#f06a46" d="M 851.5,778.5 C 856.833,778.5 862.167,778.5 867.5,778.5C 867.5,779.5 867.5,780.5 867.5,781.5C 863.833,781.5 860.167,781.5 856.5,781.5C 856.5,783.833 856.5,786.167 856.5,788.5C 859.167,788.5 861.833,788.5 864.5,788.5C 864.5,789.5 864.5,790.5 864.5,791.5C 861.833,791.5 859.167,791.5 856.5,791.5C 856.5,793.833 856.5,796.167 856.5,798.5C 860.167,798.5 863.833,798.5 867.5,798.5C 867.5,799.5 867.5,800.5 867.5,801.5C 862.167,801.5 856.833,801.5 851.5,801.5C 851.5,793.833 851.5,786.167 851.5,778.5 Z"/></g>
<g><path style="opacity:1" fill="#f86c46" d="M 888.5,791.5 C 888.783,792.289 889.283,792.956 890,793.5C 890.499,788.511 890.666,783.511 890.5,778.5C 891.5,778.5 892.5,778.5 893.5,778.5C 893.5,786.167 893.5,793.833 893.5,801.5C 892.022,801.762 890.689,801.429 889.5,800.5C 886.737,795.963 883.737,791.63 880.5,787.5C 880.44,786.957 880.107,786.624 879.5,786.5C 878.506,791.456 878.173,796.456 878.5,801.5C 877.5,801.5 876.5,801.5 875.5,801.5C 875.5,793.833 875.5,786.167 875.5,778.5C 876.873,778.343 878.207,778.51 879.5,779C 882.387,783.284 885.387,787.451 888.5,791.5 Z"/></g>
<g><path style="opacity:1" fill="#fc6c47" d="M 901.5,778.5 C 907.5,778.5 913.5,778.5 919.5,778.5C 919.5,779.5 919.5,780.5 919.5,781.5C 917.167,781.5 914.833,781.5 912.5,781.5C 912.5,788.167 912.5,794.833 912.5,801.5C 911.167,801.5 909.833,801.5 908.5,801.5C 908.5,794.833 908.5,788.167 908.5,781.5C 906.167,781.5 903.833,781.5 901.5,781.5C 901.5,780.5 901.5,779.5 901.5,778.5 Z"/></g>
<g><path style="opacity:1" fill="#ef6946" d="M 771.5,778.5 C 783.76,778.655 787.926,784.655 784,796.5C 780.975,800.921 776.808,802.421 771.5,801C 769,799.833 767.167,798 766,795.5C 763.959,788.351 765.792,782.685 771.5,778.5 Z"/></g>
<g><path style="opacity:1" fill="#644843" d="M 890.5,778.5 C 890.666,783.511 890.499,788.511 890,793.5C 889.283,792.956 888.783,792.289 888.5,791.5C 889.167,787.167 889.833,782.833 890.5,778.5 Z"/></g>
<g><path style="opacity:1" fill="#1d3542" d="M 613.5,781.5 C 615.857,781.337 618.19,781.503 620.5,782C 623.167,784 623.167,786 620.5,788C 618.19,788.497 615.857,788.663 613.5,788.5C 613.5,786.167 613.5,783.833 613.5,781.5 Z"/></g>
<g><path style="opacity:1" fill="#093242" d="M 649.5,781.5 C 655.668,780.67 658.668,783.337 658.5,789.5C 659.159,796.174 656.159,799.174 649.5,798.5C 649.5,792.833 649.5,787.167 649.5,781.5 Z"/></g>
<g><path style="opacity:1" fill="#173442" d="M 772.5,781.5 C 774.527,781.338 776.527,781.505 778.5,782C 781.167,787.333 781.167,792.667 778.5,798C 771.904,799.243 768.904,796.409 769.5,789.5C 769.4,786.376 770.4,783.71 772.5,781.5 Z"/></g>
<g><path style="opacity:1" fill="#1e3542" d="M 797.5,781.5 C 799.857,781.337 802.19,781.503 804.5,782C 807.167,784.333 807.167,786.667 804.5,789C 802.19,789.497 799.857,789.663 797.5,789.5C 797.5,786.833 797.5,784.167 797.5,781.5 Z"/></g>
<g><path style="opacity:1" fill="#584643" d="M 838.5,801.5 C 837.833,797.167 837.167,792.833 836.5,788.5C 836.461,787.244 836.961,786.244 838,785.5C 838.499,790.823 838.666,796.156 838.5,801.5 Z"/></g>
<g><path style="opacity:1" fill="#ac5844" d="M 880.5,787.5 C 879.833,792.167 879.167,796.833 878.5,801.5C 878.173,796.456 878.506,791.456 879.5,786.5C 880.107,786.624 880.44,786.957 880.5,787.5 Z"/></g>
<g><path style="opacity:1" fill="#143442" d="M 613.5,791.5 C 615.857,791.337 618.19,791.503 620.5,792C 623.033,794.084 623.033,796.084 620.5,798C 618.19,798.497 615.857,798.663 613.5,798.5C 613.5,796.167 613.5,793.833 613.5,791.5 Z"/></g>
<g><path style="opacity:1" fill="#905344" d="M 943.5,386.5 C 943.167,386.5 942.833,386.5 942.5,386.5C 693.5,386.5 444.5,386.5 195.5,386.5C 195.5,539.5 195.5,692.5 195.5,845.5C 444.5,845.5 693.5,845.5 942.5,845.5C 942.5,840.5 942.5,835.5 942.5,830.5C 943.488,835.64 943.821,840.974 943.5,846.5C 693.833,846.5 444.167,846.5 194.5,846.5C 194.5,692.833 194.5,539.167 194.5,385.5C 444.334,385.167 694.001,385.5 943.5,386.5 Z"/></g>
</svg>
